<svg id="logo" xmlns="http://www.w3.org/2000/svg"  viewBox="0 0 358 210" preserveAspectRatio="xMinYMin meet">
	<g id="waves" fill="#0E75BC">
		<path class="st0 one"  d="M188.3,162.4c-3-0.7-5.9-1.8-8.8-2.8c-9.5-3.1-18.9-6.7-28-10.9c-8.9-4-17.2-8.9-25-14.8
			c-10.6-7.9-19.1-18.3-24.9-30.2c-0.6-1.3-1.1-2.6-1.7-3.9c-0.4-0.8-0.3-1.7,0.1-2.5c1.3-2.8,3.2-5.3,5.6-7.2
			c4-3.4,9.1-5.3,14.3-5.4c3.6,0,7.2,0.5,10.7,1.6c0.7,0.3,1.4,0.5,2.2,0.4c-1.4-2.6-3.1-5-5-7.2c-1.8-2.3-3.8-4.4-6-6.4
			c-2.2-2-4.6-3.9-7.1-5.5c-2.5-1.6-5-2.9-7.7-4.1c-2.7-1-5.5-1.9-8.3-2.6c0.1-1.1,0.5-2.1,1-3c4.3-9.9,11.2-18.4,19.9-24.8
			c8.5-6.4,18.5-10.5,29-12.1c12.8-1.9,24.8,0.2,35.7,7.4c6.1,4.1,11.2,9.5,15,15.8c2.2,3.6,4.1,7.5,5.6,11.5
			c0.1,0.3,0.2,0.6,0.3,0.9c0.1,0.2-0.1,0.4-0.3,0.5c-0.1,0-0.2,0-0.3,0c-1.3-0.5-2.7-1-4-1.4c-4.7-1.6-9.7-2.1-14.7-1.7
			c-5.4,0.4-10.7,2.1-15.4,4.9c-11.7,6.5-19.9,17.9-22.4,31c-1.1,5.8-1,11.8,0.5,17.6c2.1,8.7,5.6,17.1,10.4,24.7
			c3.7,6.2,8.2,12,13.4,17.1c4.9,4.9,10.6,9,16.8,12.1c0.3,0.1,0.5,0.3,0.8,0.5c0,0.1,0,0.3,0,0.4L188.3,162.4z"/>
		<path class="st0 one" d="M138.7,158.6c-1.5,0-3-0.2-4.4-0.5c-6.4-0.9-12.8-1.9-19.1-3.2c-11.1-2.1-21.9-5.4-32.2-10
			c-10.6-4.8-20.1-11.6-28.1-20.1c-1.1-1.1-2-2.4-3-3.7c-0.5-0.6-0.4-0.9,0.1-1.4c2.3-2.5,5.6-4,9-4.1c2,0,3.9,0.2,5.8,0.7l2.2,0.6
			c0.2-0.2,0.2-0.6-0.1-0.8c0,0,0,0,0,0c-5.7-6.8-12.6-12.1-21.2-14.8c-1.4-0.4-2.9-0.7-4.4-1c-0.7,0-1.3-0.6-1.3-1.2
			c0-0.1,0-0.1,0-0.2c-0.2-1.9-0.2-3.8,0-5.7c1.3-11.6,7.4-20,17.5-25.7c5.5-3,11.6-4.7,17.9-4.8c8.9-0.2,17.6,2.2,25.2,6.8
			c5.4,3.2,10.3,7.3,14.5,12c0.4,0.4,0.7,0.9,1,1.3c0,0.2,0,0.3,0,0.5c-3.1-0.6-6.2-0.8-9.4-0.8c-7.7,0.4-14,3.5-18.4,9.9
			c-2.4,3.4-3.7,7.4-4,11.5c-0.5,6.3,1.1,12.6,4.5,18c3.5,5.5,7.6,10.5,12.5,14.9c6.7,6.4,14.2,11.8,22.5,16c4.3,2.2,8.8,3.9,13.5,5
			c0.4,0.1,0.8,0.2,1.1,0.4C139.9,158.8,139.3,158.6,138.7,158.6z"/>
		<path class="st0 one" d="M85.2,158.6c-1.4,0-2.8,0-4.2,0c-9.4-0.2-18.7-1.3-27.9-3.2c-10-2.2-19.5-6.3-27.9-12.3
			c-3.4-2.4-6.3-5.2-8.9-8.5c-1.2-1.6-2.2-3.3-3-5.1c-4.1-9.1-1.3-18.9,8.8-23.7c4.4-2,9.2-2.8,14.1-2.3c8.8,0.8,16.5,4.3,23.6,9.4
			c0.1,0.1,0.2,0.2,0.3,0.3c0,0.1,0.1,0.2,0.1,0.3c-0.4,0.3-1,0.4-1.5,0.2c-2-0.1-4.1,0.1-6.1,0.5c-2.9,0.6-5.5,2.1-7.4,4.4
			c-2.6,3.2-2.9,6.9-2,10.8c0.9,3.5,2.7,6.6,5.2,9.1c2.2,2.3,4.6,4.4,7.2,6.2c7.7,5.6,16.4,9.8,25.6,12.4c1.9,0.5,3.8,0.9,5.8,1.3
			C86.5,158.6,85.8,158.7,85.2,158.6z"/>
	</g>
	<path id="Crap" class="st0 one" d="M266.7,111.7c0.2,0,0.4,0.1,0.6,0.3c0.3,0.4-0.1,0.6-0.4,0.7c-1.1,0.6-2.3,0.7-3.4,0.5
		c-0.6-0.1-1.1-0.6-1.8-0.3c0.8,1.8,1.9,3.4,3.3,4.7c-1.9-0.3-1.9-0.3-4-2.2c-0.1,1.9,0.4,3.9-1.8,5.1c-0.2-0.5-0.2-1-0.1-1.6
		c0-0.6,0.1-1.1,0.1-1.6c0-0.6-0.1-1.1-0.2-1.6c0-0.6-0.3-1.1-0.8-1.4c-0.6,1.6-0.4,3.6-2.5,4.6c0-1.1,0.2-2.1,0.6-3.1
		c0.2-0.8,0.2-1.7-0.1-2.6c-0.5-1.2-0.9-2.4-1.2-3.6c-0.4-1.4-1.4-2.5-2.8-3c-1.6-0.6-3.3-1-5-1.4c-0.9-0.1-1.9,0-2.8,0.4
		c-0.7,0.4-1.4,0.6-2.2,0.7c0.7-1.8,1.4-2.2,4.6-2.8c0-0.4-0.3-0.7-0.7-0.7c0,0,0,0,0,0c-1-0.2-2-0.3-3-0.2c-0.8,0.1-1.5,0.1-2.3,0.2
		c-0.1-0.4,0.1-0.9,0.5-1.1c1.2-0.9,2.7-0.8,4.1-0.9c0.1-0.7-0.4-0.8-0.8-1c-1-0.6-1.5-1.8-1.4-3c1.4,1.5,2.7,2.7,4.7,3.1
		c0.2-1-0.3-1.7-0.4-2.6c-0.1-1.2-0.1-2.4,0.9-3.3c0.1-0.1,0.3-0.1,0.4-0.2c0.2,1.7-0.5,3.5,0.6,5.1c0.1,0.3,0.2,0.6,0.3,0.8
		c0.1,0.4,0.5,0.6,0.8,0.5c0.1,0,0.1,0,0.2-0.1c-0.4-0.6-0.2-1.3-0.8-1.8c0-0.2,0-0.3-0.1-0.5c-0.6-1.4-0.2-2.5,0.7-3.7
		c2.4-3.4,7.1-4.4,10.7-2.3c0.2,0.1,0.4,0.3,0.5,0.5c0.1,0.1,0.1,0.4,0,0.5c0,0-0.1,0.1-0.1,0.1c-0.3,0.1-0.6,0.2-0.9,0.2
		c-0.3,0-0.6,0.2-0.7,0.6c0,0.1,0,0.1,0,0.2c0.2,0.4-0.1,0.9-0.5,1.1c-0.1,0-0.2,0.1-0.3,0c-1.3,0.1-2.7,0.2-4,0.3
		c-0.4,0-0.8,0-1.2,0.1c-0.6,0.2-1,0.8-1,1.4c-0.1,0.7,0.5,0.7,0.9,0.8c0.8,0.2,1.5,0.3,2.3,0.4c0.7,0,1.4,0,2.1-0.1
		c0.1,0.5,0,1.1,0.6,1.4c1,0.5,1.8,1.3,2.4,2.3c0.1,0.3,0.4,0.5,0.8,0.4c0.5-0.1,0.7,0,0.6,0.6c-0.3,1.6,0.4,2.9,0.8,4.4
		c0.1,0.5,0.5,0.5,1,0.3c0.7-0.1,1.2-0.7,1.1-1.4c0,0,0-0.1,0-0.1c0-1.7,0-3.3,0-5c0-0.3,0.3-0.6,0.6-0.6c1.2-0.2,1.2-0.2,1.3-1.2
		c0-0.2,0.1-0.5,0.1-0.7c0.1-0.1,0.3-0.1,0.4,0c0.3,0.2,0.5,0.4,0.7,0.7c2.2,3.2,1.8,7.5-1,10.2c-0.5,0.6-1.1,1.1-1.7,1.6
		c-1.1,0.1-2.2,0-3.2-0.3c-0.5-0.3-1.1-0.4-1.7-0.2c0.2,0.5,0.6,0.8,1.1,0.9C263.8,111.8,265.3,112,266.7,111.7z M251.1,102.5
		c0-0.4-0.3-0.7-0.6-0.8c-0.2-0.1-0.4,0-0.5,0.2c0,0,0,0.1,0,0.1c0,0.4,0.3,0.7,0.6,0.8C250.8,102.9,251,102.8,251.1,102.5
		C251.1,102.6,251.1,102.5,251.1,102.5z"/>
	<g id="magic">
		<path class="st1 one" d="M196.5,123.4c-0.6,0.5-1.1,1.1-1.5,1.7c-1.5,1.9-3.2,3.7-5.1,5.2c-4.5,3.8-10.4,5.6-16.3,5
			c-6.1-0.6-10.9-3.5-13.8-9c-1.7-3.4-2.7-7.1-2.8-10.9c-0.4-8.5,1-17,4.1-25c2.2-6.1,5.4-11.8,9.6-16.7c3.4-4.1,7.8-7.2,12.7-9.1
			c4.8-1.8,10-2.3,15.1-1.2c1.1,0.2,2.1,0.6,3.1,1.2c1.2,0.6,2.2,1.6,2.7,2.9c0.1,0.5,0.4,0.9,0.8,1.2c0.7-1.3,0.6-2.7,1-4.1
			c0.3-0.9,0.3-1,1.3-1c1.6,0,3.3,0,5,0h13c1.4,0,1.4,0,1.2,1.5c-0.2,1.2-0.5,2.3-0.7,3.5c-0.5,4.2-2,8.3-4.4,11.8
			c-3.4,6.5-5.7,13.5-6.9,20.7c-0.5,3.1-0.8,6.3-0.8,9.4c0,2.6,0.4,5.2,1,7.7c0.6,2.6,1.7,5.1,3.2,7.3c0.6,0.9,0.6,0.9,0,1.6
			c-2.1,2.5-4.2,4.9-6.3,7.4c-0.5,0.6-1.2,0.9-2,0.9c-5.5,0-10.3-3.6-11.9-8.8c-0.2-0.8-0.4-1.5-0.6-2.3
			C197.2,124,196.9,123.6,196.5,123.4z M178,109.4c-0.1,2.6,0.1,5.2,0.8,7.7c1.1,3.6,3.9,5.1,7.5,4.3c2.7-0.6,5.1-2.2,6.8-4.4
			c1.9-2.4,3.1-5.1,3.7-8.1c1-4.9,2.1-9.8,3.2-14.8c1.1-5.2,2.2-10.5,3.3-15.7c0.7-2.5-0.6-5.1-3-6c-1.5-0.7-3.3-0.7-4.8-0.2
			c-2.5,0.9-4.8,2.5-6.4,4.6c-2,2.5-3.7,5.3-5,8.3C180.5,92.8,178.5,101,178,109.4z"/>
		<path class="st2 one" d="M248.6,150.8c-0.6-0.2-1.2-0.5-1.6-0.9c-1.1-0.7-2.2-1.2-3.5-1.4c-2.3-0.5-4.7,0.2-6.3,1.9
			c-2.6,2.7-3.1,6.8-1.3,10.1c0.8,1.4,2.1,2.4,3.6,2.8c3.1,0.9,6.5-0.2,8.5-2.8c1.2-1.6,2-3.4,2.6-5.3c0.9-2.8,1.6-5.6,2.1-8.5
			c1-4.3,1.9-8.6,2.9-12.9c0.2-0.5,0.2-1.1,0-1.6c-0.7,0-1.4,0.2-2,0.6c-2.8,1.2-5.8,2-8.9,2.4c-5.2,0.7-10.5-0.5-14.9-3.4
			c-3.4-2.3-6-5.7-7.4-9.6c-1.3-3.5-2-7.1-2.2-10.8c-0.8-10.2,2.1-20.4,8-28.8c8.5-12.4,23.9-18.1,38.5-14.3c2.1,0.6,4.2,1.5,6,2.8
			c2.8,1.9,4.6,4.9,5,8.2c0.3,2.1,0.2,4.3-0.3,6.3c-0.1,0.3-0.2,0.6-0.3,0.9c-0.7,2.6-3,4.5-5.6,4.7c-3,0.4-6-0.5-8.4-2.4
			c0.1-0.2,0.3-0.5,0.5-0.7c2.1-1.8,3.5-4.3,3.9-7.1c0.2-1,0.2-2.1,0-3.1c-0.8-3.7-3.1-5.9-7.7-5.7c-1.8,0.1-3.6,0.6-5.2,1.5
			c-2.6,1.5-4.9,3.4-6.9,5.7c-3.2,3.7-5.7,8-7.5,12.5c-2.4,5.7-3.5,11.8-3.4,18c0,2.6,0.5,5.2,1.3,7.6c0.3,0.8,0.6,1.6,1,2.4
			c3.3,7.3,13.3,8.1,18,3.3c0.6-0.7,1.7-0.9,2.5-0.4c2.9,1.2,5.9,2.3,8.8,3.4c0.5,0.1,0.7,0.5,0.7,1c0,0,0,0,0,0
			c-0.2,0.9-0.4,1.9-0.6,2.8c-1.6,7.3-4,14.4-7.1,21.2c-1.4,3-3.1,5.9-5.1,8.5c-1.9,2.6-4.2,4.7-6.9,6.4c-3.9,2.5-8.7,3.3-13.2,2.1
			c-4.5-0.9-8.2-4.2-9.6-8.6c-1.9-5-1.3-10.5,1.7-14.9c2.1-3.4,5.8-5.4,9.7-5.4c2-0.2,4.1,0,6.1,0.5c3.4,1,4.9,3,5,6.6
			C249.4,148.1,249.1,149.5,248.6,150.8z"/>
		<path class="st3 one" d="M345.1,88.9c-4-2.8-4-2.8-8.1-2.5c-0.3-0.7-0.3-1.4-0.2-2.1c0-0.7-0.1-1.4-0.3-2.1c-0.4-1.6-2-2.5-3.6-2.1
			c-0.2,0-0.3,0.1-0.4,0.2c-1,0.3-1.8,0.9-2.6,1.6c-1.5,1.5-2.8,3.2-3.8,5.1c-2,3.6-3.6,7.4-4.7,11.3c-1.5,4.6-2.4,9.3-2.7,14.1
			c-0.2,2,0,4.1,0.6,6.1c1.1,3.8,4,5.6,8,4.9c2.6-0.5,5-1.4,7.2-2.7c1.7-1,3.3-2.1,5-3.2c0.5,0.1,0.3,0.5,0.2,0.8
			c-0.5,2.9-1.6,5.6-3.1,8.1c-2.2,3.6-5.7,6.2-9.8,7.3c-4.9,1.4-10,1.4-14.9-0.1c-4.6-1.3-8.2-4.8-9.6-9.3c-1-2.9-1.4-6-1.3-9.1
			c0.3-8.3,2.3-16.4,6-23.8c1.8-3.8,4.3-7.2,7.3-10.2c6.4-6.2,14.1-8.4,22.8-7.2c0.3,0,0.6,0.1,0.9,0.2c5.9,1.4,8.2,5.4,8.1,11.1
			c-0.1,1.1-0.3,2.2-0.5,3.2C345.4,88.7,345.3,88.8,345.1,88.9z"/>
		<path class="st2 one" d="M294,65.7c1.7,0,3.5,0,5.2,0c0.8,0,1,0.2,0.8,1c-0.6,2.9-1.2,5.7-1.8,8.6c-2.3,10.9-4.6,21.7-6.9,32.6
			c-0.6,2.7-1.1,5.4-1.6,8.1c-0.2,1-0.3,2-0.2,3.1c0.1,2.8,1.6,4.3,4.4,4.6c0.9,0,1.7,0,2.6,0c0.4-0.1,0.8,0.2,0.9,0.6
			c0.8,2.4,2,4.7,3.5,6.6c0.2,0.3,0.2,0.7,0,0.9c0,0-0.1,0.1-0.2,0.1c-3.2,2.5-6.8,4.3-10.8,5.1c-3.5,0.9-7.2,0.9-10.8,0
			c-1.7-0.4-3.3-1.2-4.6-2.3c-0.7-0.4-1-1.2-0.8-2c0.6-2.7,1.1-5.4,1.7-8.1c3.9-18.4,7.8-36.8,11.7-55.2c0.1-0.5,0.3-0.9,0.3-1.4
			c0.4-2.6,0.6-2.1,2.5-2.1C291.3,65.8,292.6,65.8,294,65.7C294,65.8,294,65.8,294,65.7z"/>
		<path class="st4 one" d="M298.4,59.9c0,0.2,0,0.4,0,0.6c-0.3,1.2-0.3,2.7-1.7,3.4c-2.2-0.1-4.3-0.7-5.3-2.5c-0.3-0.6-0.4-1.4-0.2-2.1
			c0.5-2.1,2.6-3.3,4.7-2.8c0.2,0,0.3,0.1,0.5,0.2C297.8,57.1,298.6,58.5,298.4,59.9z"/>
	</g>
	<g id="voyage">
		<path class="st0 one" d="M347.1,40.4C347,40.4,347,40.4,347.1,40.4c-0.3-0.3-0.6-0.2-0.8,0c-0.3,0.6-0.5,1.2-0.7,1.8
			c-0.5,1.3-1.3,2.5-2.3,3.6c-2.9,2.9-7.9,3-9.8-2.2c-0.4-1.4-0.7-2.9-0.9-4.4c0-0.1,0-0.1,0-0.2c0-0.4,0.3-0.8,0.8-0.8
			c1.1-0.2,2.2-0.3,3.2-0.6c1.8-0.4,3.4-1.3,4.7-2.6c3.1-3.2,2.3-7.5-1.7-9.3c-3.9-2-8.7-0.6-11,3.1c-1.2,1.9-1.9,4-2.2,6.2
			c-0.4,2.7-0.3,5.4,0.2,8c0.2,0.4,0.2,0.8,0,1.1c-0.7,0.8-1.6,1.5-2.6,2c0,0,0,0-0.1,0c-0.2,0.1-0.4-0.1-0.5-0.3
			c-0.1-0.4-0.1-0.8-0.1-1.2c0.3-4.4,0.1-8.8,0.5-13.2c0.2-2.7-0.5-3.7-3.2-4.4c-0.5-0.1-0.9-0.2-1.4-0.2c-0.5-0.1-1,0.2-1.1,0.6
			c-0.1,0.2-0.3,0.4-0.5,0.6c-0.6-0.5-1.1-0.9-1.7-1.3c-1.6-1.2-3.7-1.6-5.6-1c-2.1,0.6-3.8,1.9-5,3.8c-1.7,2.6-2.6,5.6-2.7,8.7
			c0,1.9,0.1,3.8,0.5,5.6c0.2,0.4,0.2,0.9,0,1.4c-0.5,1-1.3,1.8-2.2,2.3c-0.2,0.2-0.5,0.3-0.8,0.3c-0.7,0-1.4-0.5-1.4-1.3
			c-0.2-1-0.3-2-0.3-3c0-2.8,0.2-5.7,0.5-8.5c0.1-1.5,0.2-3,0.3-4.5c0-1.2-0.6-2.3-1.6-3c-0.8-0.6-1.8-1-2.8-1.2
			c-0.3-0.1-0.6,0.1-0.8,0.4c-0.1,0.2-0.1,0.5-0.2,0.7c-0.3,0.7-0.5,0.8-1,0.4c-1-0.9-2.2-1.6-3.5-2c-3.2-0.9-6.5,0.4-8.2,3.2
			c-1.1,1.7-1.9,3.6-2.3,5.6c-0.5,2.5-0.6,5-0.3,7.5c0.2,0.5,0.1,1-0.1,1.4c-0.9,1.2-2,2.1-3.4,2.8c-0.2-0.6-0.3-1.2-0.1-1.8
			c0.1-2.9,0.1-5.8,0.2-8.7c0-1.1,0.1-2.1,0-3.1c-0.3-3.4-2.7-6.3-6-7.3c-0.2,0.8-0.5,1.7-0.7,2.4c-1.1,4.5-2.5,8.9-4.3,13.2
			c-0.4,0.9-0.8,1.7-1.3,2.5c-0.3,0.6-0.8,1.2-1.4,1.6c-0.1,0.1-0.1,0.1-0.2,0.1c-0.4,0.2-0.8,0-1-0.4c-0.5-0.7-0.7-1.6-0.6-2.5
			c0-2,0.1-3.9,0.4-5.9c0.3-1.9,0.4-3.9,0.2-5.9c-0.3-2.8-2.6-4.9-5.3-5.1c0,0,0,0,0,0c-0.3,0-0.6,0.2-0.7,0.5
			c-0.1,0.5-0.1,1.1-0.1,1.6c-0.1,2.4-0.3,4.9-0.4,7.3c0.1,0.7-0.5,1.4-1.2,1.5c-0.1,0-0.1,0-0.2,0.1c-1.2,0.4-1.3,0.4-1.6-0.9
			c-0.3-1.5-0.5-3.1-0.9-4.6c-0.6-2.3-2.2-4.3-4.4-5.3c-0.4-0.2-0.7-0.3-1.1-0.5c-4.6-1.6-9.7,0.8-11.3,5.4
			c-1.5,4.3-1.6,8.9-0.2,13.2c0.9,3.3,3.6,5.9,7,6.7c4.7,1.3,8.1-0.4,9.7-5c0.4-1.2,0.7-2.4,1-3.6c0.1-0.6,0.5-1,1.1-1.1
			c0.5-0.1,0.9-0.2,1.4-0.2c0,0,0,0,0,0c0.3,0,0.6,0.2,0.6,0.6c0.1,0.9,0,1.9,0.2,2.8c0.2,2.9,2.1,5.4,4.8,6.5
			c2.2,0.9,3.7,0.5,5.2-1.3c1.1-1.4,1.9-2.9,2.6-4.5c0.9-2,1.6-4.1,2.2-6.2c0.1-0.6,0.3-1.1,0.8-1.4c-0.2,3.5-0.4,6.7-0.5,9.9
			c0,0.5-0.1,1.1-0.1,1.7c-0.1,0.2-0.1,0.3-0.1,0.5c0,0.6-0.4,1.2-1,1.5c-1.3,0.7-2.6,1.4-3.9,2.2c-1,0.5-1.9,1.2-2.6,2
			c-1.1,1-1.3,2.7-0.4,3.9c0.3,0.5,0.8,1,1.3,1.4c2.1,1.3,4.7,1.6,7,0.8c2.1-0.6,3.2-2.2,3.8-4.2c0.2-0.5,0.4-1,0.5-1.6
			c0.3-1.1,0.5-2.3,0.8-3.5c0.1-0.5,0.3-0.9,0.7-1.2l5.1-3.2c0.4,0.2,0.8,0.6,1.1,1c0.6,0.6,1.2,1.2,1.9,1.8c1.5,1.3,3.8,1.2,5.1-0.3
			c0.8-0.7,1.5-1.6,2.1-2.6c0.6-1.2,1.2-2.4,1.7-3.7c0.1-0.3,0-0.9,0.7-1c0.2,1.2,0.3,2.5,0.5,3.7c0.1,1.1,0.6,2.1,1.4,2.9
			c2.2,2.2,5.7,2.4,8.2,0.5c0.7-0.5,1.3-1.1,2-1.8c0.4,0.3,0.7,0.6,1.1,0.9c0.6,0.5,1.2,1,1.9,1.4c1.7,1.1,3.9,0.7,5.1-0.8
			c0.8-0.9,1.5-2,2.1-3.1c0.6-1.3,1.1-2.6,1.7-3.9c0.1-0.3,0.1-0.8,0.6-0.7c0,1.8,0,3.6,0,5.4c0,3.2-0.1,3.2-2.9,4.6
			c-1.7,0.8-3.4,1.7-5,2.7c-0.9,0.4-1.6,1.1-2.1,1.9c-0.1,0.1-0.1,0.2-0.2,0.3c-0.7,1.4-0.2,3.1,1.2,3.8c0.5,0.3,1.1,0.6,1.7,0.7
			c2.1,0.5,4.3,0.4,6.3-0.2c2.2-0.6,3.9-2.1,4.9-4.2c0.7-1.3,1.1-2.8,1.3-4.3c0.1-1,0.7-1.8,1.5-2.2c0.8-0.5,1.6-1,2.4-1.6
			c0.5-0.5,1.1-0.9,1.7-1.2c0.9-0.2,1.3,0.8,1.9,1.2c4.2,3.4,10.2,3.4,14.5,0c1.8-1.4,3-3.3,3.5-5.5
			C348.2,42.2,347.8,41.1,347.1,40.4z M332.9,35.4c0-2.2,0.6-4.3,1.7-6.2c0.3-0.5,0.7-0.9,1.1-1.3c0,0,0.1,0,0.1-0.1
			c0.6-0.5,1.5-0.4,2,0.2c0.7,0.7,0.9,1.7,0.7,2.6c-0.1,0.3-0.2,0.6-0.3,0.9c-0.4,0.9-1,1.7-1.7,2.3
			C335.4,34.7,334.2,35.2,332.9,35.4L332.9,35.4C332.9,35.4,332.9,35.4,332.9,35.4z M243.4,47.3c-0.1,0.1-0.2,0.2-0.3,0.3
			c-0.6,0.4-1.5,0.3-1.9-0.3c-0.4-0.4-0.7-0.8-1-1.3c-1.1-2.2-1.6-4.7-1.3-7.2l0,0c1.9,1,3.9,1.8,6,2.3c0.4,0,0.7,0.4,0.7,0.8
			C245.4,43.9,244.7,45.8,243.4,47.3z M244.2,37c-2.1-0.8-3.7-2.5-4.1-4.7c-0.2-0.7-0.1-1.4,0.1-2.1c0-0.2,0.1-0.4,0.2-0.6
			c0.6-0.9,1.8-1.2,2.8-0.6c1.2,0.6,2.2,1.6,2.6,2.9c0.4,1,0.6,2.1,0.6,3.2l0,0C246.5,37.6,246.4,37.9,244.2,37z M268,56.2
			c-0.4,1.4-1.7,2.2-3.1,2.1c-0.4,0-0.8-0.2-0.9-0.6c-0.2-0.4-0.1-1,0.2-1.3c0.7-0.7,1.4-1.2,2.3-1.6c0.3-0.1,0.6-0.4,0.9-0.5
			c0.1-0.1,0.2-0.1,0.4-0.1c0.1,0,0.3,0,0.4,0.2c0,0,0,0,0,0l0,0C268.7,55,268.2,55.7,268,56.2z M292.5,34.7c-0.8,3-1.9,6-3.3,8.8
			c-0.5,1.1-1.3,2-2.2,2.7c-0.1,0.1-0.2,0.1-0.3,0.2c-0.4,0.1-0.7-0.1-0.8-0.5c-0.5-1.2-0.8-2.4-0.8-3.7c0-0.4,0-0.8,0-1.2l0,0
			c0-2.9,0.6-5.8,1.6-8.5c0.3-1.1,1-2.2,1.8-3c0.1-0.1,0.1-0.1,0.2-0.2c0.9-0.7,2.2-0.6,3,0.3c0.8,0.8,1.3,1.9,1.2,3
			C292.8,33.3,292.7,34,292.5,34.7z M317.1,33.2c-1.1,4.2-2.3,8.5-4.9,12.2c-0.3,0.4-0.5,1.1-1.1,1.1c-0.8,0-1.1-0.8-1.3-1.5
			c-0.4-1.2-0.6-2.5-0.5-3.7h0c0-3.3,0.7-6.6,2-9.6c0.4-1,1-1.8,1.8-2.5c0.5-0.4,1.2-0.5,1.8-0.2C316.4,29.7,317.4,31.4,317.1,33.2z
			 M315.9,56.4c-0.5,1-1.6,1.6-2.7,1.5h-0.5c-0.4,0-0.8-0.2-1-0.6c0,0,0,0,0,0c0,0,0,0,0,0c-0.1-0.4,0-0.8,0.4-1
			c1.2-0.9,2.5-1.6,3.9-2.1c0.1,0,0.2,0,0.2,0c0.1,0,0.1,0,0.2,0.1c0.1,0.1,0.1,0.2,0.1,0.4C316.4,55.2,316.2,55.8,315.9,56.4z"/>
		<path class="st0 one" d="M227.2,12.5c-0.3,0.6-0.5,1.4-0.5,2.1c-0.4,3.4-0.7,6.7-1.1,10.1c-0.6,5.5-1.4,10.9-2.6,16.3
			c-0.5,2.3-1.2,4.6-2.1,6.8c-0.6,1.3-1.2,1.2-2.2,0.4c-0.5-0.5-0.9-1.1-1.1-1.8c-0.2-0.7-0.4-1.4-0.5-2c-0.7-4-1.4-8-2-11.9
			s-1.2-7.8-1.9-11.7c-0.3-1.6-1-3.1-2.1-4.4c-0.9,1.7-2.3,3.1-4.1,3.9c-1,0.5-1,0.6-0.8,1.6c0.5,3.2,0.9,6.4,1.4,9.6
			c0.7,4.6,1.2,9.2,2.3,13.7c0.4,1.8,1,3.7,1.7,5.4c1.3,3,3.7,4.2,6.8,4.2c2.3,0.2,4.4-1.2,5.2-3.3c0.2-0.7,0.6-1.3,0.8-2
			c0.8-2.5,1.7-5.1,2.4-7.7c1.6-6.3,2.9-12.8,3.8-19.2c0.3-1.8,0.5-3.6,0.5-5.4c0-1.1-0.4-2.2-1.2-3
			C229.4,13.4,228.4,12.7,227.2,12.5z"/>
	</g>
	<g id="Slogan">
		<path class="st5 one" d="M81.5,190.2c-1,1.9-2.9,3-5,3.1c-3.2,0.1-5.9-2.5-6-5.7c-0.1-3.2,2.5-5.9,5.7-6s5.9,2.5,6,5.7c0,0,0,0.1,0,0.1
			v5.9h-0.7V190.2z M76.5,192.6c2.9,0.1,5.2-2.1,5.3-5c0.1-2.9-2.1-5.2-5-5.3s-5.2,2.1-5.3,5c0,0.1,0,0.1,0,0.2
			C71.5,190.2,73.7,192.5,76.5,192.6L76.5,192.6z"/>
		<path class="st5 one" d="M90.2,181.5H91l4.7,10.9l4.8-10.9h0.7l-5.1,11.8h-0.7L90.2,181.5z"/>
		<path class="st5 one" d="M107.6,181.5c3.2-0.1,5.9,2.5,6,5.7c0.1,3.2-2.5,5.9-5.7,6s-5.9-2.5-6-5.7c0,0,0-0.1,0-0.1
			C101.8,184.2,104.4,181.6,107.6,181.5C107.6,181.5,107.6,181.5,107.6,181.5z M107.6,192.6c2.9,0.1,5.2-2.1,5.3-5
			c0.1-2.9-2.1-5.2-5-5.3s-5.2,2.1-5.3,5c0,0.1,0,0.1,0,0.2C102.6,190.2,104.8,192.5,107.6,192.6L107.6,192.6z"/>
		<path class="st5 one" d="M118.9,199.2h-0.7l2.5-5.9l-5.1-11.8h0.8l4.7,10.9l4.8-10.9h0.7L118.9,199.2z"/>
		<path class="st5 one" d="M139.7,190.2c-1,1.9-2.9,3-5,3.1c-3.2,0.1-5.9-2.5-6-5.7c-0.1-3.2,2.5-5.9,5.7-6c3.2-0.1,5.9,2.5,6,5.7
			c0,0,0,0.1,0,0.1v5.9h-0.7L139.7,190.2L139.7,190.2z M134.7,192.6c2.9,0.1,5.2-2.1,5.3-5c0.1-2.9-2.1-5.2-5-5.3
			c-2.9-0.1-5.2,2.1-5.3,5c0,0.1,0,0.1,0,0.2C129.6,190.2,131.8,192.5,134.7,192.6L134.7,192.6z"/>
		<path class="st5 one" d="M144.8,196.9c0.9,1,2.2,1.5,3.6,1.6c2.8-0.1,5-2.4,5-5.2v-3.1c-1,1.9-2.9,3.1-5,3.1c-3.2,0-5.9-2.6-5.9-5.9
			c0-3.2,2.6-5.9,5.9-5.9c2.1,0,4,1.2,5,3.1v-3.1h0.7v11.8c0.1,3.2-2.5,5.8-5.7,5.9c-1.5,0-3-0.6-4.1-1.8L144.8,196.9z M148.4,182.2
			c-2.9-0.1-5.2,2.1-5.3,5c-0.1,2.9,2.1,5.2,5,5.3c2.9,0.1,5.2-2.1,5.3-5c0-0.1,0-0.1,0-0.2C153.4,184.6,151.2,182.3,148.4,182.2
			L148.4,182.2z"/>
		<path class="st5 one" d="M157.1,187.8c0.2,2.7,2.3,4.8,5,4.8c1.3,0,2.6-0.5,3.6-1.5l0.5,0.5c-1.1,1.1-2.5,1.7-4.1,1.7
			c-3.2,0.1-5.9-2.5-6-5.7c-0.1-3.2,2.5-5.9,5.7-6c3.2-0.1,5.9,2.5,6,5.7c0,0,0,0.1,0,0.1v0.4L157.1,187.8L157.1,187.8z M157.1,187
			h10.1c0-2.8-2.3-5-5-5C159.4,182,157.1,184.3,157.1,187L157.1,187z"/>
		<path class="st5 one" d="M179.2,199.2h-0.7l2.6-5.9l-5.1-11.8h0.7l4.7,10.9l4.8-10.9h0.7L179.2,199.2z"/>
		<path class="st5 one" d="M194.9,181.5c3.2-0.1,5.9,2.5,6,5.7c0.1,3.2-2.5,5.9-5.7,6c-3.2,0.1-5.9-2.5-6-5.7c0,0,0-0.1,0-0.1
			C189.1,184.2,191.7,181.6,194.9,181.5C194.9,181.5,194.9,181.5,194.9,181.5z M194.9,192.6c2.9,0.1,5.2-2.1,5.3-5
			c0.1-2.9-2.1-5.2-5-5.3c-2.9-0.1-5.2,2.1-5.3,5c0,0.1,0,0.1,0,0.2C189.9,190.2,192.1,192.5,194.9,192.6L194.9,192.6z"/>
		<path class="st5 one" d="M213.7,181.5h0.7v5.9c0.1,3.2-2.3,5.8-5.5,6c-3.2,0.1-5.8-2.3-6-5.5c0-0.2,0-0.3,0-0.5v-5.9h0.7v5.9
			c0,2.8,2.3,5.1,5.1,5.1s5.1-2.3,5.1-5.1V181.5z"/>
		<path class="st5 one" d="M233.9,193.3h-0.7v-3.1c-1,1.9-2.9,3.1-5,3.1c-3.2,0-5.9-2.6-5.9-5.9c0-3.2,2.6-5.9,5.9-5.9c2.1,0,4,1.2,5,3.1
			v-9h0.7V193.3L233.9,193.3z M228.2,182.2c-2.9-0.1-5.2,2.1-5.3,5c-0.1,2.9,2.1,5.2,5,5.3c2.9,0.1,5.2-2.1,5.3-5c0-0.1,0-0.1,0-0.2
			C233.2,184.6,231,182.3,228.2,182.2z"/>
		<path class="st5 one" d="M236.9,193.3h-0.7v-11.8h0.7v3.1c1-1.9,2.9-3.1,5-3.1v0.7c-2.8,0.1-5,2.4-5,5.2V193.3L236.9,193.3z"/>
		<path class="st5 one" d="M243.3,187.8c0.2,2.7,2.3,4.8,5,4.8c1.3,0,2.6-0.5,3.6-1.5l0.5,0.5c-1.1,1.1-2.5,1.7-4.1,1.7
			c-3.2,0.1-5.9-2.5-6-5.7c-0.1-3.2,2.5-5.9,5.7-6c3.2-0.1,5.9,2.5,6,5.7c0,0,0,0.1,0,0.1v0.4L243.3,187.8L243.3,187.8z M243.3,187
			h10.1c0-2.8-2.3-5-5-5C245.6,182,243.3,184.3,243.3,187L243.3,187z"/>
		<path class="st5 one" d="M267.2,190.2c-1,1.9-2.9,3-5,3.1c-3.2,0.1-5.9-2.5-6-5.7c-0.1-3.2,2.5-5.9,5.7-6c3.2-0.1,5.9,2.5,6,5.7
			c0,0,0,0.1,0,0.1v5.9h-0.7L267.2,190.2L267.2,190.2z M262.2,192.6c2.9,0.1,5.2-2.1,5.3-5c0.1-2.9-2.1-5.2-5-5.3s-5.2,2.1-5.3,5
			c0,0.1,0,0.1,0,0.2C257.2,190.2,259.4,192.5,262.2,192.6L262.2,192.6z"/>
		<path class="st5 one" d="M286.7,187.4c0-2.8-1.7-5.2-3.8-5.2s-3.8,2.2-3.8,5.2v5.9h-0.7v-5.9c0-3-1.8-5.2-3.8-5.2s-3.8,2.4-3.8,5.2v5.9
			h-0.7v-11.8h0.7v2.8c0.6-1.6,2.1-2.6,3.8-2.8c1.9,0,3.4,1.5,4.1,3.6c0.7-2.1,2.2-3.6,4.1-3.6c2.5,0,4.5,2.6,4.5,5.9v5.9h-0.7V187.4
			L286.7,187.4z"/>
	</g>
</svg>
